<svg width="88" height="24" viewBox="0 0 88 24" fill="none" xmlns="http://www.w3.org/2000/svg">
<path d="M24.75 14.5938C24.75 14.8125 24.6406 15.0039 24.5039 15.1133C24.3672 15.5234 24.3672 16.7266 24.5039 17.1641C24.6406 17.2734 24.75 17.4648 24.75 17.6562V18.0938C24.75 18.4766 24.4492 18.75 24.0938 18.75H15.125C13.6758 18.75 12.5 17.5742 12.5 16.125V7.375C12.5 5.92578 13.6758 4.75 15.125 4.75H24.0938C24.4492 4.75 24.75 5.05078 24.75 5.40625V14.5938ZM16 8.41406V8.96094C16 9.07031 16.0547 9.125 16.1641 9.125H21.9609C22.043 9.125 22.125 9.07031 22.125 8.96094V8.41406C22.125 8.33203 22.043 8.25 21.9609 8.25H16.1641C16.0547 8.25 16 8.33203 16 8.41406ZM16 10.1641V10.7109C16 10.8203 16.0547 10.875 16.1641 10.875H21.9609C22.043 10.875 22.125 10.8203 22.125 10.7109V10.1641C22.125 10.082 22.043 10 21.9609 10H16.1641C16.0547 10 16 10.082 16 10.1641ZM22.918 17C22.8633 16.5352 22.8633 15.7422 22.918 15.25H15.125C14.6328 15.25 14.25 15.6602 14.25 16.125C14.25 16.6172 14.6328 17 15.125 17H22.918Z" fill="white"/>
<path d="M57.1406 11.3672C57.1953 11.4766 57.2227 11.6133 57.2227 11.7773C57.2227 11.9141 57.1953 12.0508 57.1406 12.1602C55.6641 15.0586 52.7109 17 49.375 17C46.0117 17 43.0586 15.0586 41.582 12.1602C41.5273 12.0508 41.5 11.9141 41.5 11.75C41.5 11.6133 41.5273 11.4766 41.582 11.3672C43.0586 8.46875 46.0117 6.5 49.375 6.5C52.7109 6.5 55.6641 8.46875 57.1406 11.3672ZM49.375 15.6875V15.7148C51.5352 15.7148 53.3125 13.9375 53.3125 11.7773V11.75C53.3125 9.58984 51.5352 7.8125 49.375 7.8125C47.1875 7.8125 45.4375 9.58984 45.4375 11.75C45.4375 13.9375 47.1875 15.6875 49.375 15.6875ZM49.375 9.125V9.15234C50.8242 9.15234 52 10.3008 52 11.75C52 13.1992 50.8242 14.375 49.375 14.375C47.9258 14.375 46.75 13.1992 46.75 11.75C46.75 11.5312 46.7773 11.2852 46.832 11.0664C47.0508 11.2305 47.3242 11.3125 47.625 11.3125C48.3359 11.3125 48.9102 10.7383 48.9102 10.0273C48.9102 9.72656 48.8281 9.45312 48.6641 9.23438C48.8828 9.17969 49.1289 9.15234 49.375 9.125Z" fill="white"/>
<path d="M75.1406 11.3672C75.1953 11.4766 75.2227 11.6133 75.2227 11.7773C75.2227 11.9141 75.1953 12.0508 75.1406 12.1602C73.6641 15.0586 70.7109 17 67.375 17C64.0117 17 61.0586 15.0586 59.582 12.1602C59.5273 12.0508 59.5 11.9141 59.5 11.75C59.5 11.6133 59.5273 11.4766 59.582 11.3672C61.0586 8.46875 64.0117 6.5 67.375 6.5C70.7109 6.5 73.6641 8.46875 75.1406 11.3672ZM67.375 15.6875V15.7148C69.5352 15.7148 71.3125 13.9375 71.3125 11.7773V11.75C71.3125 9.58984 69.5352 7.8125 67.375 7.8125C65.1875 7.8125 63.4375 9.58984 63.4375 11.75C63.4375 13.9375 65.1875 15.6875 67.375 15.6875ZM67.375 9.125V9.15234C68.8242 9.15234 70 10.3008 70 11.75C70 13.1992 68.8242 14.375 67.375 14.375C65.9258 14.375 64.75 13.1992 64.75 11.75C64.75 11.5312 64.7773 11.2852 64.832 11.0664C65.0508 11.2305 65.3242 11.3125 65.625 11.3125C66.3359 11.3125 66.9102 10.7383 66.9102 10.0273C66.9102 9.72656 66.8281 9.45312 66.6641 9.23438C66.8828 9.17969 67.1289 9.15234 67.375 9.125Z" fill="white"/>
</svg>
