<svg width="305" height="165" viewBox="0 0 305 165" fill="none" xmlns="http://www.w3.org/2000/svg">
<path d="M102.158 23.3643L91.6902 86.3528C91.3848 88.1908 91.946 90.0669 93.2106 91.4352L115.173 115.199C116.445 116.575 118.283 117.282 120.149 117.112L168.261 112.737C169.994 112.58 171.71 113.179 172.97 114.38L217.551 156.901C221.072 160.26 226.916 158.28 227.672 153.474L234.633 109.207C234.868 107.713 236.089 106.57 237.595 106.433L258.694 104.514C260.614 104.34 262.334 103.258 263.324 101.604L302.256 36.5337C303.627 34.2424 303.329 31.3225 301.522 29.3563L278.42 4.21219C277.14 2.81902 275.281 2.10719 273.398 2.28952L107.527 18.3497C104.808 18.6129 102.606 20.67 102.158 23.3643Z" stroke="#D8FF00" stroke-width="3.01571" stroke-linejoin="round"/>
<path d="M190.832 55.6226C190.832 57.0757 189.613 58.2476 188.207 58.2476C186.754 58.2476 185.582 57.0757 185.582 55.6226C185.582 54.2163 186.754 52.9976 188.207 52.9976C189.613 52.9976 190.832 54.2163 190.832 55.6226ZM191.957 60.7319C190.551 61.9507 189.707 63.7788 189.707 65.7476C189.707 67.3882 190.223 68.8413 191.207 70.0132V70.9976C191.207 71.8413 190.504 72.4976 189.707 72.4976H186.707C185.863 72.4976 185.207 71.8413 185.207 70.9976V69.7788C183.426 68.9351 182.207 67.1069 182.207 64.9976C182.207 62.1382 184.551 59.7476 187.457 59.7476H188.957C190.035 59.7476 191.113 60.1226 191.957 60.7319ZM185.207 63.0288C184.738 63.5444 184.457 64.2476 184.457 64.9976C184.457 65.7944 184.738 66.4976 185.207 67.0132V63.0288ZM203.207 70.9976V70.0132C204.145 68.8413 204.707 67.3882 204.707 65.7476C204.707 63.7788 203.816 61.9507 202.41 60.7319C203.254 60.1226 204.332 59.7476 205.457 59.7476H206.957C209.816 59.7476 212.207 62.1382 212.207 64.9976C212.207 67.1069 210.941 68.9351 209.207 69.7788V70.9976C209.207 71.8413 208.504 72.4976 207.707 72.4976H204.707C203.863 72.4976 203.207 71.8413 203.207 70.9976ZM209.207 67.0132C209.629 66.4976 209.957 65.7944 209.957 64.9976C209.957 64.2476 209.629 63.5444 209.207 63.0288V67.0132ZM208.832 55.6226C208.832 57.0757 207.613 58.2476 206.207 58.2476C204.754 58.2476 203.582 57.0757 203.582 55.6226C203.582 54.2163 204.754 52.9976 206.207 52.9976C207.613 52.9976 208.832 54.2163 208.832 55.6226ZM194.207 55.9976C194.207 54.3569 195.52 52.9976 197.207 52.9976C198.848 52.9976 200.207 54.3569 200.207 55.9976C200.207 57.6851 198.848 58.9976 197.207 58.9976C195.52 58.9976 194.207 57.6851 194.207 55.9976ZM203.207 65.7476C203.207 67.8569 201.941 69.6851 200.207 70.5288V72.4976C200.207 73.3413 199.504 73.9976 198.707 73.9976H195.707C194.863 73.9976 194.207 73.3413 194.207 72.4976V70.5288C192.426 69.6851 191.207 67.8569 191.207 65.7476C191.207 62.8882 193.551 60.4976 196.457 60.4976H197.957C200.816 60.4976 203.207 62.8882 203.207 65.7476ZM194.207 67.7632V63.7788C193.738 64.2944 193.457 64.9976 193.457 65.7476C193.457 66.5444 193.738 67.2476 194.207 67.7632ZM200.207 63.7788V67.7632C200.629 67.2007 200.957 66.5444 200.957 65.7476C200.957 64.9976 200.629 64.2944 200.207 63.7788Z" fill="#D8FF00"/>
<path d="M113.001 82.9996L118.257 114.671C118.562 116.507 118.002 118.381 116.74 119.749L106.342 131.015C105.071 132.393 103.23 133.101 101.363 132.931L77.2099 130.731C75.4752 130.573 73.7568 131.173 72.4971 132.376L52.3612 151.609C48.8406 154.971 42.9921 152.992 42.2369 148.183L39.1708 128.657C39.0406 127.828 38.3637 127.194 37.5282 127.118L27.1847 126.176C25.2642 126.001 23.5431 124.918 22.554 123.263L2.67915 89.9979C1.3112 87.7083 1.60944 84.7921 3.41254 82.8268L13.9739 71.3156C15.2541 69.9202 17.1154 69.2071 19.0002 69.3898L107.634 77.9838C110.352 78.2474 112.554 80.3051 113.001 82.9996Z" stroke="#D8FF00" stroke-width="3.01571" stroke-linejoin="round"/>
</svg>
