<svg width="304" height="165" viewBox="0 0 304 165" fill="none" xmlns="http://www.w3.org/2000/svg">
<path d="M101.213 23.3643L90.7449 86.3528C90.4395 88.1908 91.0007 90.0669 92.2653 91.4352L114.228 115.199C115.5 116.575 117.338 117.282 119.204 117.112L167.315 112.737C169.048 112.58 170.765 113.179 172.024 114.38L216.606 156.901C220.127 160.26 225.971 158.28 226.727 153.474L233.688 109.207C233.923 107.713 235.143 106.57 236.649 106.433L257.749 104.514C259.668 104.34 261.389 103.258 262.378 101.604L301.311 36.5337C302.682 34.2424 302.383 31.3225 300.577 29.3563L277.475 4.21219C276.195 2.81902 274.335 2.10719 272.452 2.28952L106.581 18.3497C103.863 18.6129 101.66 20.67 101.213 23.3643Z" stroke="#D8FF00" stroke-width="3.01571" stroke-linejoin="round"/>
<path d="M205.261 47C206.886 47 208.261 48.375 208.261 50V76C208.261 77.6875 206.886 79 205.261 79H189.261C187.573 79 186.261 77.6875 186.261 76V50C186.261 48.375 187.573 47 189.261 47H205.261ZM200.261 75C200.261 74.5 199.761 74 199.261 74H195.261C194.698 74 194.261 74.5 194.261 75C194.261 75.5625 194.698 76 195.198 76H199.261C199.761 76 200.261 75.5625 200.261 75ZM204.261 71V51H190.261V71H204.261Z" fill="#D8FF00"/>
<path d="M112.888 83.0753L118.144 114.746C118.449 116.583 117.889 118.457 116.626 119.824L106.229 131.09C104.957 132.468 103.117 133.176 101.25 133.006L77.0967 130.807C75.3619 130.649 73.6435 131.249 72.3838 132.452L52.2479 151.685C48.7273 155.047 42.8788 153.068 42.1236 148.259L39.0575 128.733C38.9273 127.904 38.2504 127.27 37.4149 127.194L27.0714 126.252C25.1509 126.077 23.4298 124.994 22.4407 123.339L2.56586 90.0735C1.19792 87.784 1.49616 84.8678 3.29926 82.9025L13.8606 71.3912C15.1408 69.9959 17.0021 69.2828 18.8869 69.4655L107.52 78.0594C110.239 78.3231 112.441 80.3808 112.888 83.0753Z" stroke="#D8FF00" stroke-width="3.01571" stroke-linejoin="round"/>
</svg>
