<svg width="305" height="165" viewBox="0 0 305 165" fill="none" xmlns="http://www.w3.org/2000/svg">
<path d="M102.005 23.3643L91.5369 86.3528C91.2315 88.1908 91.7927 90.0669 93.0573 91.4352L115.02 115.199C116.292 116.575 118.13 117.282 119.996 117.112L168.107 112.737C169.84 112.58 171.557 113.179 172.816 114.38L217.398 156.901C220.919 160.26 226.763 158.28 227.519 153.474L234.48 109.207C234.715 107.713 235.935 106.57 237.441 106.433L258.541 104.514C260.46 104.34 262.181 103.258 263.17 101.604L302.103 36.5337C303.474 34.2424 303.175 31.3225 301.369 29.3563L278.267 4.21219C276.987 2.81902 275.127 2.10719 273.244 2.28952L107.373 18.3497C104.655 18.6129 102.452 20.67 102.005 23.3643Z" stroke="#D8FF00" stroke-width="3.01571" stroke-linejoin="round"/>
<path d="M186.402 49.5884C186.594 49.397 186.867 49.397 187.031 49.561L187.961 50.4907C188.125 50.6821 188.152 50.9282 187.988 51.1196C184.324 55.1118 184.324 61.2642 187.988 65.2563C188.152 65.4204 188.125 65.6938 187.961 65.8853L187.031 66.8149C186.867 66.979 186.594 66.979 186.402 66.7876C181.945 61.9478 181.945 54.4282 186.402 49.5884ZM191.789 58.1743C191.789 57.2173 192.582 56.4243 193.539 56.4243C194.523 56.4243 195.289 57.2173 195.289 58.1743C195.289 59.1587 194.523 59.9243 193.539 59.9243C192.582 59.9243 191.789 59.1587 191.789 58.1743ZM189.52 52.6509C189.684 52.4595 189.984 52.4595 190.148 52.6235L191.078 53.5806C191.242 53.7446 191.242 53.9907 191.105 54.1821C189.109 56.479 189.109 59.897 191.105 62.1938C191.242 62.3853 191.242 62.6313 191.078 62.7954L190.148 63.7524C189.984 63.9165 189.684 63.9165 189.52 63.7251C186.73 60.5806 186.73 55.7954 189.52 52.6509Z" fill="#D8FF00"/>
<path d="M200.662 66.8335C200.471 67.0249 200.197 67.0249 200.033 66.8608L199.104 65.9312C198.939 65.7397 198.912 65.4937 199.076 65.3022C202.74 61.3101 202.74 55.1577 199.076 51.1655C198.912 51.0015 198.939 50.728 199.104 50.5366L200.033 49.6069C200.197 49.4429 200.471 49.4429 200.662 49.6343C205.119 54.4741 205.119 61.9937 200.662 66.8335ZM195.275 58.2476C195.275 59.2046 194.482 59.9976 193.525 59.9976C192.541 59.9976 191.775 59.2046 191.775 58.2476C191.775 57.2632 192.541 56.4976 193.525 56.4976C194.482 56.4976 195.275 57.2632 195.275 58.2476ZM197.545 63.771C197.381 63.9624 197.08 63.9624 196.916 63.7983L195.986 62.8413C195.822 62.6772 195.822 62.4312 195.959 62.2397C197.955 59.9429 197.955 56.5249 195.959 54.228C195.822 54.0366 195.822 53.7905 195.986 53.6265L196.916 52.6694C197.08 52.5054 197.381 52.5054 197.545 52.6968C200.334 55.8413 200.334 60.6265 197.545 63.771Z" fill="#D8FF00"/>
<path d="M113.209 82.9996L118.465 114.671C118.77 116.507 118.21 118.381 116.948 119.749L106.55 131.015C105.279 132.393 103.438 133.101 101.571 132.931L77.418 130.731C75.6832 130.573 73.9648 131.173 72.7051 132.376L52.5692 151.609C49.0486 154.971 43.2001 152.992 42.4449 148.183L39.3788 128.657C39.2486 127.828 38.5717 127.194 37.7362 127.118L27.3927 126.176C25.4722 126.001 23.7511 124.918 22.762 123.263L2.88715 89.9979C1.51921 87.7083 1.81745 84.7921 3.62054 82.8268L14.1819 71.3156C15.4621 69.9202 17.3234 69.2071 19.2082 69.3898L107.842 77.9838C110.56 78.2474 112.762 80.3051 113.209 82.9996Z" stroke="#D8FF00" stroke-width="3.01571" stroke-linejoin="round"/>
</svg>
