<svg width="8" height="15" viewBox="0 0 8 15" fill="none" xmlns="http://www.w3.org/2000/svg">
<path d="M7.22656 10.6484C7.39062 10.8125 7.5 11.0312 7.5 11.25C7.5 11.4961 7.39062 11.7148 7.22656 11.8789L4.60156 14.5039C4.27344 14.8594 3.69922 14.8594 3.37109 14.5039L0.746094 11.8789C0.390625 11.5508 0.390625 10.9766 0.746094 10.6484C1.07422 10.293 1.64844 10.293 1.97656 10.6484L3.125 11.7695V3.75781L1.97656 4.87891C1.64844 5.23438 1.07422 5.23438 0.746094 4.87891C0.390625 4.55078 0.390625 3.97656 0.746094 3.64844L3.37109 1.02344C3.69922 0.667969 4.27344 0.667969 4.60156 1.02344L7.22656 3.64844C7.39062 3.8125 7.5 4.03125 7.5 4.25C7.5 4.49609 7.39062 4.71484 7.22656 4.87891C6.89844 5.23438 6.32422 5.23438 5.99609 4.87891L4.875 3.75781V11.7695L5.99609 10.6484C6.32422 10.293 6.89844 10.293 7.22656 10.6484Z" fill="#48009E"/>
</svg>
